# xmcd
#
# Track frame offsets: 
#        150
#        13632
#        28671
#        41796
#        53387
#        63499
#        75815
#        88380
#        103427
#        116290
#
# Disc length: 1695 seconds
#
# Revision: 0
# Processed by: cddbd v1.5.1PL2 Copyright (c) Steve Scherf et al.
# Submitted via: ExactAudioCopy v0.95b2
#
DISCID=77069d0a
DTITLE=Reba McEntire - Unlimited
DYEAR=1990
DGENRE=Country
TTITLE0=I'd Say You
TTITLE1=Everything I'll Ever Own
TTITLE2=What Do You Know About Heartache
TTITLE3=Out Of The Blue
TTITLE4=Over Under And Around
TTITLE5=I'm Not That Lonely Yet
TTITLE6=Whoever's Whatchin'
TTITLE7=Old Man River (I've Come To Talk Again)
TTITLE8=You're The First Time I've Thought About Leaving
TTITLE9=Can't Even Get The Blues
EXTD=
EXTT0=
EXTT1=
EXTT2=
EXTT3=
EXTT4=
EXTT5=
EXTT6=
EXTT7=
EXTT8=
EXTT9=
PLAYORDER=
